<?xml version="1.0" encoding="UTF-8"?>
<svg version="1.1" xmlns="http://www.w3.org/2000/svg" width="512" height="512">
<path d="M0 0 C0.66 -0.0103125 1.32 -0.020625 2 -0.03125 C5.03318038 0.77443854 6.14918888 1.97324047 8 4.5 C8.4490016 7.20552245 8.69369634 9.54230591 8.75 12.25 C8.77964844 12.94738281 8.80929688 13.64476562 8.83984375 14.36328125 C8.91018458 16.07490813 8.95739946 17.78745815 9 19.5 C10.8253125 19.0359375 10.8253125 19.0359375 12.6875 18.5625 C28.83224537 15.05057573 42.64460205 16.3698664 56.6875 25.1875 C69.66225439 38.16225439 72.03897329 53.94861739 73 71.5 C73.68964844 70.47261719 74.37929687 69.44523437 75.08984375 68.38671875 C83.24280205 56.32804681 92.05697637 45.14971787 102 34.5 C102.83144531 33.6028125 103.66289062 32.705625 104.51953125 31.78125 C116.8796155 18.89635983 132.60586129 6.61935073 151.125 6.125 C159.20563788 6.09371002 164.99492897 7.87378704 171.0234375 13.33203125 C181.16114937 24.17553319 183.0181521 38.11084974 184 52.5 C184.66386719 51.88511719 185.32773437 51.27023438 186.01171875 50.63671875 C187.33623047 49.42435547 187.33623047 49.42435547 188.6875 48.1875 C189.55761719 47.38699219 190.42773438 46.58648437 191.32421875 45.76171875 C194 43.5 194 43.5 196.63183594 42.36035156 C199.39351347 40.62126532 199.39351347 40.62126532 199.59594727 36.91821289 C199.61004556 35.43639503 199.59855825 33.95419234 199.56640625 32.47265625 C199.57204086 31.68733017 199.57767548 30.90200409 199.58348083 30.09288025 C199.59995462 27.58214837 199.58437373 25.07317124 199.5625 22.5625 C199.54590413 20.05556196 199.53681524 17.54978737 199.55223083 15.04283142 C199.56150756 13.48355242 199.55235563 11.92402812 199.52259827 10.36500549 C199.53934069 7.04117596 199.63112725 4.98196827 201.68345642 2.30039978 C204.52845801 0.08928651 205.95944913 -0.00590654 209.53125 -0.01757812 C210.63919922 -0.03018677 211.74714844 -0.04279541 212.88867188 -0.05578613 C214.08041016 -0.04768921 215.27214844 -0.03959229 216.5 -0.03125 C217.72783203 -0.0350769 218.95566406 -0.03890381 220.22070312 -0.04284668 C222.81641459 -0.04556842 225.41215336 -0.03818911 228.0078125 -0.02148438 C231.98499599 -0.00008075 235.96037282 -0.02127963 239.9375 -0.046875 C242.45833733 -0.04423177 244.97917353 -0.03910691 247.5 -0.03125 C248.69173828 -0.03934692 249.88347656 -0.04744385 251.11132812 -0.05578613 C252.77325195 -0.03687317 252.77325195 -0.03687317 254.46875 -0.01757812 C255.44263672 -0.01439575 256.41652344 -0.01121338 257.41992188 -0.00793457 C260.75830859 0.64928662 261.95392056 1.82316224 264 4.5 C264.28606766 7.29785832 264.34738917 9.70435405 264.22265625 12.484375 C264.20303052 14.07549689 264.18551978 15.66664602 264.16992188 17.2578125 C264.12459261 19.75214711 264.06279791 22.24258499 263.96264648 24.73535156 C263.29023527 34.6739277 263.29023527 34.6739277 267.34643555 43.26342773 C270.1891427 45.38927182 270.1891427 45.38927182 273.16894531 46.94604492 C280.66245047 51.05920121 285.34825405 58.55916831 289.375 65.875 C289.69686279 66.45064697 290.01872559 67.02629395 290.3503418 67.61938477 C296.36162202 79.2047323 296.39365125 91.05160133 296.1875 103.75 C296.17241456 105.38149796 296.15873304 107.01300953 296.14648438 108.64453125 C296.1138102 112.59669732 296.06224574 116.54819362 296 120.5 C297.36608398 120.53456299 297.36608398 120.53456299 298.75976562 120.56982422 C302 121.5 302 121.5 304.03710938 124.43408203 C304.66282349 125.73931761 305.26346223 127.05675663 305.84375 128.3828125 C306.17596558 129.09357941 306.50818115 129.80434631 306.85046387 130.53665161 C307.92324171 132.84799055 308.96225968 135.17274641 310 137.5 C310.71080161 139.05371855 311.42304257 140.60677942 312.13671875 142.15917969 C313.932315 146.08661279 315.69342728 150.0283348 317.43945312 153.97802734 C318.5217194 156.42408864 319.61211663 158.86642092 320.703125 161.30859375 C321.39631083 162.86957971 322.08903765 164.43076961 322.78125 165.9921875 C323.10613403 166.71912811 323.43101807 167.44606873 323.76574707 168.19503784 C326 173.26993358 326 173.26993358 326 175.5 C327.13018555 175.5093457 328.26037109 175.51869141 329.42480469 175.52832031 C333.62214421 175.56822392 337.81875104 175.63398326 342.015625 175.70751953 C343.83128439 175.7357271 345.64706652 175.75694274 347.46289062 175.77099609 C350.07485789 175.79242909 352.68534974 175.83907885 355.296875 175.890625 C356.10743347 175.89185364 356.91799194 175.89308228 357.75311279 175.89434814 C361.13132112 175.9819416 363.44722163 176.09412506 366.21465302 178.12609863 C368.56600548 181.25259386 368.502921 183.13538165 368.50793457 187.02832031 C368.51729451 188.00926603 368.51729451 188.00926603 368.52684355 189.01002884 C368.54278935 191.19976178 368.53016445 193.38838395 368.51757812 195.578125 C368.52299859 197.14856618 368.53012083 198.71900227 368.53881836 200.28942871 C368.55706383 204.55391389 368.54997927 208.81801227 368.53730202 213.08250427 C368.52718063 217.54362029 368.5365653 222.00470301 368.54284668 226.46582031 C368.55012561 233.95774283 368.54052898 241.44950767 368.52148438 248.94140625 C368.49971511 257.60524253 368.50676631 266.2687023 368.52879 274.93252945 C368.54693704 282.36873728 368.54950574 289.80483172 368.53903532 297.24105453 C368.53279654 301.6834302 368.53197525 306.12562885 368.54518127 310.56799316 C368.5567291 314.7443455 368.54873395 318.92021203 368.52560425 323.09651184 C368.52031139 324.62998141 368.52184083 326.16349181 368.53065491 327.69694519 C368.54157225 329.78907677 368.52789623 331.87964781 368.50793457 333.97167969 C368.50567242 335.72819855 368.50567242 335.72819855 368.50336456 337.52020264 C367.89184197 341.14026956 366.9161976 342.32835761 364 344.5 C360.68212891 344.95068359 360.68212891 344.95068359 356.7265625 344.8984375 C355.25650981 344.89880112 353.78645709 344.90022626 352.31640625 344.90258789 C351.16615967 344.89462692 351.16615967 344.89462692 349.99267578 344.88650513 C335.5150625 344.81615479 322.55631002 346.0336393 308.8046875 350.96508789 C307 351.5 307 351.5 304 351.5 C304.00888245 352.15510559 304.01776489 352.81021118 304.0269165 353.48516846 C304.1153505 360.29812909 304.1757181 367.11092693 304.21972656 373.92431641 C304.23985272 376.46767803 304.26715637 379.01099333 304.30175781 381.55419922 C304.3502297 385.20812404 304.37295916 388.86143756 304.390625 392.515625 C304.41127014 393.65429016 304.43191528 394.79295532 304.45318604 395.96612549 C304.45348816 397.02692322 304.45379028 398.08772095 304.45410156 399.18066406 C304.46298401 400.11332092 304.47186646 401.04597778 304.48101807 402.00689697 C304 404.5 304 404.5 302.61962891 406.80407715 C298.48514125 409.48070515 294.45352376 409.02375629 289.63183594 408.95410156 C288.57786621 408.95468567 287.52389648 408.95526978 286.43798828 408.95587158 C282.95311589 408.95308414 279.46909804 408.92195968 275.984375 408.890625 C273.56870999 408.88316499 271.15303894 408.87747093 268.73736572 408.87347412 C262.3782888 408.85819905 256.01957711 408.81890049 249.66064453 408.7746582 C243.17225078 408.73374624 236.68379804 408.71547178 230.1953125 408.6953125 C217.46338581 408.65240856 204.73171233 408.58490262 192 408.5 C192.0085199 409.11868958 192.01703979 409.73737915 192.02581787 410.37481689 C192.03244446 411.1860199 192.03907104 411.9972229 192.04589844 412.83300781 C192.05867828 414.03947968 192.05867828 414.03947968 192.07171631 415.27032471 C191.87981694 421.23651685 188.18398866 427.42611631 184 431.5 C176.8787143 436.47430501 169.40035411 439.42136219 161.19750977 442.12841797 C159.33450729 442.75883751 159.33450729 442.75883751 157.43386841 443.4019928 C154.05944877 444.54308019 150.68018327 445.66907615 147.29945493 446.7913146 C144.46508411 447.73367125 141.63319259 448.68336113 138.80123752 449.63294804 C132.11614916 451.87432473 125.42699469 454.10323103 118.73510742 456.32421875 C111.85598723 458.60758537 104.98408418 460.9117357 98.11538655 463.22624671 C92.1920834 465.22138213 86.26455846 467.20357992 80.33352131 469.17560494 C76.80240719 470.34980515 73.27303052 471.52864468 69.74765205 472.71996689 C65.81515097 474.04811433 61.87416913 475.34912866 57.93188477 476.64794922 C56.78089798 477.04060471 55.62991119 477.43326019 54.44404602 477.83781433 C43.97241617 481.24260391 35.1830431 481.19161286 24.56884766 478.58813477 C23.26175339 478.28330673 23.26175339 478.28330673 21.92825317 477.97232056 C19.08734214 477.30683242 16.25083925 476.62428175 13.4140625 475.94140625 C11.42419741 475.47188454 9.43407 475.00347326 7.44369507 474.53611755 C2.23172624 473.30930543 -2.97669368 472.06804903 -8.18444824 470.82348633 C-13.48947024 469.55817252 -18.79753714 468.30577597 -24.10546875 467.05273438 C-30.06925261 465.64446589 -36.0327153 464.23497133 -41.9937439 462.81507874 C-42.89884705 462.59968948 -43.8039502 462.38430023 -44.73648071 462.16238403 C-46.42069251 461.7613831 -48.10473624 461.3596753 -49.78857422 460.95710754 C-58.59556027 458.8611826 -65.86300263 457.84953453 -74.89453125 459.8125 C-76.18037109 460.08320313 -77.46621094 460.35390625 -78.79101562 460.6328125 C-80.79899278 461.06408873 -82.80620068 461.49862527 -84.81274414 461.93652344 C-102.63693287 465.80153498 -102.63693287 465.80153498 -108 464.5 C-110.3808458 462.84588213 -111.7986951 461.52127705 -112.37240124 458.61070251 C-112.52244301 456.1648644 -112.5402016 453.74730108 -112.51757812 451.296875 C-112.5245874 450.36637329 -112.53159668 449.43587158 -112.53881836 448.47717285 C-112.55642461 445.40114507 -112.54476606 442.32603715 -112.53125 439.25 C-112.53394415 437.11295393 -112.53782593 434.97590906 -112.54284668 432.83886719 C-112.5487453 428.35990733 -112.54016683 423.88126653 -112.52148438 419.40234375 C-112.49869487 413.65857548 -112.51181597 407.9155548 -112.53577423 402.17181396 C-112.55022221 397.75889443 -112.54563076 393.3461524 -112.53526306 388.93322754 C-112.53259302 386.81530672 -112.53587524 384.69736983 -112.54518127 382.57946777 C-112.55533018 379.62025205 -112.5398686 376.66225021 -112.51757812 373.703125 C-112.52567505 372.82611938 -112.53377197 371.94911377 -112.54211426 371.04553223 C-112.53083496 370.23805542 -112.51955566 369.43057861 -112.50793457 368.59863281 C-112.50642647 367.89957825 -112.50491837 367.20052368 -112.50336456 366.48028564 C-112 364.5 -112 364.5 -108 360.5 C-98.76 360.5 -89.52 360.5 -80 360.5 C-80 310.34 -80 260.18 -80 208.5 C-89.24 208.5 -98.48 208.5 -108 208.5 C-112 204.5 -112 204.5 -112.46313477 200.78686523 C-112.20736563 196.04833714 -110.55668253 192.17676181 -108.58984375 187.91015625 C-108.2306485 187.0998999 -107.87145325 186.28964355 -107.50137329 185.45483398 C-106.32777811 182.81735816 -105.13327857 180.18998334 -103.9375 177.5625 C-103.11924151 175.73870187 -102.30211373 173.91439605 -101.48608398 172.08959961 C-99.82053283 168.37223183 -98.14586596 164.65917228 -96.46386719 160.94921875 C-94.50106323 156.61687775 -92.56084469 152.27505799 -90.63310242 147.92701721 C-89.27086671 144.85623193 -87.90066876 141.78905149 -86.52810669 138.72286987 C-85.88668663 137.28780881 -85.247569 135.85171632 -84.61080933 134.4145813 C-83.72954966 132.4299672 -82.8371732 130.45075595 -81.94140625 128.47265625 C-81.44326416 127.36156494 -80.94512207 126.25047363 -80.43188477 125.10571289 C-79 122.5 -79 122.5 -76 120.5 C-72.86328125 120.3046875 -72.86328125 120.3046875 -69.3125 120.375 C-68.13300781 120.39304687 -66.95351562 120.41109375 -65.73828125 120.4296875 C-64.83464844 120.45289063 -63.93101563 120.47609375 -63 120.5 C-63.59748047 118.72109375 -63.59748047 118.72109375 -64.20703125 116.90625 C-72.27838875 92.47602584 -78.13391713 62.85063637 -66.57421875 38.49609375 C-63.96383214 33.86215163 -61.02847198 30.01200121 -57 26.5 C-56.236875 25.819375 -55.47375 25.13875 -54.6875 24.4375 C-42.91523535 15.95051851 -30.17927795 15.85834578 -16.36328125 17.89453125 C-13.86706404 18.34390833 -11.44226268 18.82605916 -9 19.5 C-8.97421875 18.46359375 -8.9484375 17.4271875 -8.921875 16.359375 C-8.86558049 14.98954199 -8.80823345 13.61975195 -8.75 12.25 C-8.73582031 11.56808594 -8.72164063 10.88617188 -8.70703125 10.18359375 C-8.54332756 6.8112978 -8.21660738 4.79571617 -6.203125 2.046875 C-3.87144375 0.4097371 -2.80977149 -0.04390268 0 0 Z M216 16.5 C216 22.11 216 27.72 216 33.5 C226.56 33.5 237.12 33.5 248 33.5 C248 27.89 248 22.28 248 16.5 C237.44 16.5 226.88 16.5 216 16.5 Z M138 27.5 C137.18015625 27.93957031 136.3603125 28.37914062 135.515625 28.83203125 C129.32120926 32.45154932 124.11319695 36.89262706 118.875 41.75 C118.21097168 42.36472168 117.54694336 42.97944336 116.86279297 43.61279297 C113.15478325 47.02474455 113.15478325 47.02474455 111 51.5 C111.69150146 51.9439209 112.38300293 52.3878418 113.09545898 52.84521484 C116.21266115 54.85023622 119.32511589 56.86250857 122.4375 58.875 C123.52611328 59.57367188 124.61472656 60.27234375 125.73632812 60.9921875 C126.77080078 61.6625 127.80527344 62.3328125 128.87109375 63.0234375 C130.30859985 63.950354 130.30859985 63.950354 131.77514648 64.89599609 C134 66.5 134 66.5 135 68.5 C135.45070423 75.59859155 135.45070423 75.59859155 134 78.5 C130.62080671 80.18959665 127.61913652 80.25035274 124 79.5 C119.81311932 77.33656847 116.02883876 74.6583468 112.1875 71.9375 C110.14556374 70.51055885 108.09766063 69.09210573 106.04296875 67.68359375 C104.69755005 66.73311157 104.69755005 66.73311157 103.32495117 65.76342773 C102.55771729 65.34649658 101.7904834 64.92956543 101 64.5 C97.6371729 65.62094237 97.22249623 66.21103132 95.30078125 69.02734375 C94.81416016 69.73697266 94.32753906 70.44660156 93.82617188 71.17773438 C93.32666016 71.92345703 92.82714844 72.66917969 92.3125 73.4375 C91.80138672 74.17935547 91.29027344 74.92121094 90.76367188 75.68554688 C88.00396081 79.28912281 88.00396081 79.28912281 87 83.5 C89.18391747 85.18220351 89.18391747 85.18220351 91.99609375 86.90625 C93.54586914 87.89818359 93.54586914 87.89818359 95.12695312 88.91015625 C96.21943359 89.59980469 97.31191406 90.28945312 98.4375 91 C100.58474766 92.36030491 102.72942282 93.72468185 104.87109375 95.09375 C105.82943115 95.69896484 106.78776855 96.30417969 107.77514648 96.92773438 C110 98.5 110 98.5 111 100.5 C111.45070423 107.59859155 111.45070423 107.59859155 110 110.5 C106.65339956 112.17330022 103.59058041 112.20903342 100 111.5 C96.11696128 109.52552388 92.65280552 107.04512989 89.125 104.5 C87.25509549 103.18395307 85.38282019 101.87126605 83.5078125 100.5625 C82.68941895 99.97597656 81.87102539 99.38945313 81.02783203 98.78515625 C79.11857726 97.32156383 79.11857726 97.32156383 77 97.5 C75.16002803 100.95484098 73.32916118 104.4144248 71.5 107.875 C70.97535156 108.85984375 70.45070312 109.8446875 69.91015625 110.859375 C69.41386719 111.80039063 68.91757813 112.74140625 68.40625 113.7109375 C67.94541016 114.58024902 67.48457031 115.44956055 67.00976562 116.34521484 C65.85855534 118.40522721 65.85855534 118.40522721 66 120.5 C94.38 120.5 122.76 120.5 152 120.5 C167.15550941 76.3004723 167.15550941 76.3004723 162.015625 29.5078125 C160.30319627 26.754754 158.72078888 25.31385925 156 23.5 C149.2124036 22.3278448 143.8750375 24.26094787 138 27.5 Z M-46 39.5 C-55.26872324 48.76872324 -55.33698366 62.14090387 -55.3894043 74.35668945 C-55.24318754 86.30969585 -53.15319393 111.34680607 -44 120.5 C-41.2611158 120.59516211 -38.54752059 120.62554594 -35.80834961 120.61352539 C-34.94988937 120.61367142 -34.09142914 120.61381744 -33.20695496 120.6139679 C-30.35539262 120.61326847 -27.50389475 120.6054747 -24.65234375 120.59765625 C-22.68079158 120.59579218 -20.70923895 120.59436822 -18.73768616 120.59336853 C-13.53773733 120.58954251 -8.33781625 120.57971152 -3.13787842 120.56866455 C2.16393661 120.55845222 7.4657561 120.55387129 12.76757812 120.54882812 C23.17839763 120.53808933 33.58919651 120.52101191 44 120.5 C44.80435615 118.60871915 45.60467365 116.7157204 46.40332031 114.82202148 C46.84943665 113.76804672 47.29555298 112.71407196 47.75518799 111.62815857 C49.45758055 107.35011993 50.65483462 103.0276877 51.75 98.5625 C51.95753906 97.75232422 52.16507812 96.94214844 52.37890625 96.10742188 C56.60515958 79.46143698 57.88091037 60.26182074 50.01953125 44.5390625 C46.4209936 38.51701991 41.37457293 35.75646787 34.8046875 33.97265625 C26.1528171 32.51461124 17.18454049 34.67456763 9 37.5 C7.74050951 38.53406673 7.74050951 38.53406673 7.90234375 40.78515625 C7.91394531 41.70167969 7.92554688 42.61820313 7.9375 43.5625 C7.94652344 44.48160156 7.95554688 45.40070312 7.96484375 46.34765625 C7.97644531 47.05792969 7.98804688 47.76820312 8 48.5 C8.90363281 48.53738281 9.80726563 48.57476562 10.73828125 48.61328125 C12.50751953 48.71189453 12.50751953 48.71189453 14.3125 48.8125 C16.07013672 48.89951172 16.07013672 48.89951172 17.86328125 48.98828125 C21 49.5 21 49.5 22.89453125 50.79296875 C24.22714492 52.85075028 24.40272439 54.06025402 24.375 56.5 C24.38660156 57.5209375 24.38660156 57.5209375 24.3984375 58.5625 C23.87883583 61.08919049 22.98508835 61.88330067 21 63.5 C17.95137475 63.79847993 15.11139905 63.92021845 12.0625 63.8984375 C11.18601807 63.90130768 10.30953613 63.90417786 9.40649414 63.90713501 C7.55386712 63.90917598 5.70121858 63.90364378 3.84863281 63.89111328 C1.01057821 63.87505984 -1.82605227 63.89096055 -4.6640625 63.91015625 C-6.46354481 63.90817382 -8.26302624 63.90433016 -10.0625 63.8984375 C-10.91255615 63.90451019 -11.7626123 63.91058289 -12.63842773 63.9168396 C-18.57533538 63.84585615 -18.57533538 63.84585615 -20.72290039 62.09683228 C-22.3131228 60.10848427 -22.40365934 59.02202235 -22.375 56.5 C-22.38660156 55.4790625 -22.38660156 55.4790625 -22.3984375 54.4375 C-21.86638707 51.85027439 -21.15659952 51.02203505 -19 49.5 C-16.30078125 48.98828125 -16.30078125 48.98828125 -13.3125 48.8125 C-12.31863281 48.74675781 -11.32476562 48.68101563 -10.30078125 48.61328125 C-9.16189453 48.55720703 -9.16189453 48.55720703 -8 48.5 C-8 45.2 -8 41.9 -8 38.5 C-12.9217735 36.17973535 -17.44606115 34.81658205 -22.875 34.1875 C-23.57608887 34.10483887 -24.27717773 34.02217773 -24.99951172 33.93701172 C-33.33285086 33.09037069 -39.4049579 34.13194247 -46 39.5 Z M195.59375 65.5625 C182.15314901 81.90205414 184 99.68107048 184 120.5 C215.68 120.5 247.36 120.5 280 120.5 C280.76516226 88.09334429 280.76516226 88.09334429 264.8984375 62.3359375 C254.00753322 52.06077339 242.15058708 48.8563098 227.51953125 49.19140625 C214.7598406 49.83271708 204.23466505 56.43247655 195.59375 65.5625 Z M-66 136.5 C-67.11681105 138.72158382 -68.23230265 140.94381411 -69.34706116 143.16642761 C-69.81710689 144.10094985 -69.81710689 144.10094985 -70.2966485 145.05435133 C-72.8950649 150.23913429 -75.30673318 155.48453366 -77.62109375 160.80078125 C-78.01071793 161.68863815 -78.4003421 162.57649506 -78.80177307 163.49125671 C-79.60906266 165.33285846 -80.41464369 167.17521014 -81.21850586 169.01831055 C-82.45586101 171.85458727 -83.69921473 174.68818019 -84.94335938 177.52148438 C-85.73211601 179.32276556 -86.52054041 181.12419227 -87.30859375 182.92578125 C-87.6803624 183.77352615 -88.05213104 184.62127106 -88.43516541 185.4947052 C-90.20122552 188.88547711 -90.20122552 188.88547711 -91 192.5 C42.98 192.5 176.96 192.5 315 192.5 C309.4562461 178.96582373 309.4562461 178.96582373 303.6328125 165.5625 C303.08522781 164.33696411 303.08522781 164.33696411 302.52658081 163.08666992 C301.77350767 161.40293247 301.01921818 159.71973849 300.26367188 158.03710938 C299.10177504 155.44825177 297.94522156 152.85704941 296.7890625 150.265625 C296.04978906 148.61444455 295.31021767 146.96339746 294.5703125 145.3125 C294.22557892 144.5397876 293.88084534 143.7670752 293.52566528 142.97094727 C292.14361538 139.49210488 292.14361538 139.49210488 290 136.5 C288.10779627 136.40235958 286.21188937 136.37628666 284.31716824 136.37695217 C282.45404843 136.3739656 282.45404843 136.3739656 280.55328983 136.37091869 C279.15706262 136.37377228 277.7608356 136.37671789 276.36460876 136.37974548 C274.89531659 136.37930991 273.42602449 136.37843526 271.95673281 136.37715632 C267.90002206 136.37490861 263.84333745 136.37893639 259.78663003 136.38393438 C255.4191903 136.38823476 251.05175216 136.38679275 246.68431091 136.3860321 C239.11104416 136.38550661 231.537786 136.3886561 223.96452141 136.39426994 C213.01472092 136.40238146 202.0649246 136.4049998 191.11512143 136.40625793 C173.35172899 136.408449 155.58834113 136.41511058 137.82495117 136.42456055 C120.56486026 136.43373325 103.30477059 136.44081477 86.04467773 136.44506836 C84.45001618 136.44546244 84.45001618 136.44546244 82.82313924 136.44586449 C77.49008052 136.44716949 72.15702179 136.4484332 66.82396305 136.44967639 C22.54930552 136.46005072 -21.725347 136.47767052 -66 136.5 Z M334 192.5 C334.33 193.82 334.66 195.14 335 196.5 C335.203125 198.5 335.203125 198.5 335.25 200.5 C335.27578125 201.16 335.3015625 201.82 335.328125 202.5 C335 204.5 335 204.5 332 208.5 C338.6 208.5 345.2 208.5 352 208.5 C352 203.22 352 197.94 352 192.5 C346.06 192.5 340.12 192.5 334 192.5 Z M-64 208.5 C-64 258 -64 307.5 -64 358.5 C-48.82429919 356.8240441 -48.82429919 356.8240441 -33.72631836 354.71240234 C-32.63599304 354.54629959 -31.54566772 354.38019684 -30.42230225 354.20906067 C-28.09623337 353.85432842 -25.77040463 353.49801827 -23.44480705 353.1402092 C-19.7575339 352.57328216 -16.06950613 352.0115145 -12.38124084 351.45108032 C-1.90938277 349.85906727 8.56120396 348.25879174 19.03100586 346.65332031 C25.46991697 345.66602141 31.90988661 344.68580125 38.35043144 343.70921707 C40.7911653 343.33776092 43.23151757 342.96378798 45.67146492 342.58720016 C49.07703817 342.061661 52.48377163 341.5443596 55.89086914 341.02880859 C57.38486488 340.7950779 57.38486488 340.7950779 58.90904236 340.55662537 C68.56109572 339.11317887 77.30092833 338.34658955 86 343.5 C91.18187059 348.07954984 94.61678389 352.77032691 95.3359375 359.76953125 C95.41854784 367.26228896 94.97364967 372.1180778 91 378.5 C90.67 379.49 90.34 380.48 90 381.5 C88.19921875 382.5703125 88.19921875 382.5703125 86 383.5 C85.34644531 383.80679688 84.69289062 384.11359375 84.01953125 384.4296875 C75.95742672 387.8828367 67.53667102 389.63817384 59 391.5 C59 391.83 59 392.16 59 392.5 C89.03225413 393.59632171 117.13863122 393.73673777 146.1784668 385.35984802 C146.94843994 385.13797318 147.71841309 384.91609833 148.51171875 384.6875 C149.25172119 384.47356094 149.99172363 384.25962189 150.75415039 384.03919983 C160.0559675 381.4757447 169.00265175 381.22935771 177.90234375 385.28125 C180.86243068 387.00107704 182.8050813 388.88025833 185 391.5 C186.96428367 393.46428367 189.98297163 392.62023917 192.59747314 392.62442017 C193.5476532 392.62082489 194.49783325 392.61722961 195.47680664 392.61352539 C196.47181686 392.61367142 197.46682709 392.61381744 198.49198914 392.6139679 C201.79806662 392.61326831 205.10408854 392.60547379 208.41015625 392.59765625 C210.69559193 392.59579223 212.98102801 392.59436825 215.26646423 392.59336853 C221.29498387 392.58954207 227.32347959 392.5797107 233.35198975 392.56866455 C239.49832841 392.55845317 245.64467093 392.5538715 251.79101562 392.54882812 C263.86068931 392.53808854 275.93033893 392.52049071 288 392.5 C288 380.62 288 368.74 288 356.5 C279.67288367 358.12919306 279.67288367 358.12919306 271.89868164 360.63549805 C244.99835069 369.92260559 217.565522 368.68879356 189.42718506 368.35113525 C184.72887275 368.30563781 180.03123818 368.29695187 175.33275265 368.295533 C169.46405408 368.29349724 163.59572931 368.26796018 157.7271595 368.22995567 C155.25810126 368.21478528 152.78901127 368.20406831 150.31991386 368.19800758 C146.89037357 368.18460081 143.46217114 368.14469995 140.03295898 368.09692383 C139.02888 368.09716553 138.02480103 368.09740723 136.99029541 368.09765625 C129.85934002 367.95717701 124.44088011 366.46925368 118.9765625 361.75390625 C118.53054687 361.19574219 118.08453125 360.63757813 117.625 360.0625 C117.16351563 359.50691406 116.70203125 358.95132813 116.2265625 358.37890625 C113.09210377 353.57739463 112.73501061 349.3139965 112.875 343.6875 C112.88402344 342.99462891 112.89304688 342.30175781 112.90234375 341.58789062 C112.92573843 339.89177605 112.96160359 338.19584129 113 336.5 C112.31486328 336.4906543 111.62972656 336.48130859 110.92382812 336.47167969 C107.78185565 336.4175809 104.64130933 336.33401176 101.5 336.25 C99.88351563 336.22873047 99.88351563 336.22873047 98.234375 336.20703125 C90.54002063 335.97244728 84.88271836 334.85053109 78.9765625 329.75390625 C78.53054687 329.19574219 78.08453125 328.63757813 77.625 328.0625 C76.93277344 327.22912109 76.93277344 327.22912109 76.2265625 326.37890625 C72.99331149 321.42605997 72.74029214 316.98511922 72.875 311.1875 C72.88402344 310.44693359 72.89304688 309.70636719 72.90234375 308.94335938 C72.92575787 307.12876533 72.96162385 305.31433929 73 303.5 C71.80375 302.984375 70.6075 302.46875 69.375 301.9375 C64.04702122 299.27351061 60.50401718 295.52863734 57.859375 290.203125 C55.79013225 283.69441599 55.72753216 275.29046513 58.5625 269 C62.02063776 263.28548867 66.80344294 259.77455096 73 257.5 C72.95359375 256.4378125 72.9071875 255.375625 72.859375 254.28125 C72.38602194 239.05835954 72.38602194 239.05835954 77 233.5 C82.69454474 227.50858326 87.71649441 225.2987278 96.05078125 225.0859375 C96.70958786 225.06657135 97.36839447 225.0472052 98.04716492 225.0272522 C100.13548143 224.96784059 102.22385424 224.92122709 104.3125 224.875 C105.73504905 224.83678468 107.15757584 224.79773091 108.58007812 224.7578125 C112.05318074 224.66217204 115.52645132 224.57800027 119 224.5 C118.49339844 223.39591797 118.49339844 223.39591797 117.9765625 222.26953125 C117.53054687 221.29371094 117.08453125 220.31789062 116.625 219.3125 C115.96371094 217.86810547 115.96371094 217.86810547 115.2890625 216.39453125 C114.12930255 213.79034301 113.05874614 211.14686534 112 208.5 C53.92 208.5 -4.16 208.5 -64 208.5 Z M130 208.5 C133.17233768 215.08654792 137.08863171 219.45118804 143.625 222.875 C148.72207207 224.21633476 153.61486304 224.62889257 158.87573242 224.65771484 C159.86468254 224.66533592 159.86468254 224.66533592 160.87361145 224.67311096 C162.29439692 224.68374964 163.71519846 224.69239488 165.13600731 224.69923019 C167.38472939 224.71109185 169.63326563 224.73055807 171.88191223 224.75234985 C178.27139139 224.8137557 184.66084398 224.86813186 191.05053711 224.90136719 C194.96741676 224.92228309 198.88394424 224.95754623 202.80062294 225.00212479 C204.29133281 225.01629346 205.78210482 225.0250092 207.27287865 225.02817917 C209.35311359 225.03307527 211.43240692 225.0561922 213.51245117 225.08349609 C215.28733162 225.09562637 215.28733162 225.09562637 217.09806824 225.10800171 C220 225.5 220 225.5 221.88056946 226.90493774 C223.27682465 228.89444391 223.40245873 230.08363134 223.375 232.5 C223.38273438 233.180625 223.39046875 233.86125 223.3984375 234.5625 C222.87234051 237.12077557 222.04727445 237.89525613 220 239.5 C217.71106243 239.87638092 217.71106243 239.87638092 214.97209167 239.87854004 C213.93328354 239.88674271 212.8944754 239.89494537 211.82418823 239.90339661 C210.68490875 239.89724838 209.54562927 239.89110016 208.37182617 239.88476562 C207.1715831 239.8901384 205.97134003 239.89551117 204.73472595 239.90104675 C202.12356026 239.91084492 199.51302556 239.91525455 196.90190697 239.91069031 C192.77070195 239.90388313 188.63977516 239.9197452 184.50862122 239.93908691 C175.73492918 239.97696422 166.96126125 239.98973927 158.1875 240 C148.72579685 240.01107478 139.26422177 240.02647449 129.8026064 240.07071257 C126.37066765 240.0860426 122.93895227 240.09498108 119.50697899 240.08930969 C115.67661167 240.08479286 111.84668042 240.09816307 108.01635742 240.11523438 C106.88315063 240.10908615 105.74994385 240.10293793 104.58239746 240.09660339 C99.01898195 240.14017855 94.74062741 240.21659486 90 243.5 C88.57958179 246.34083641 88.68547728 248.35477278 89 251.5 C91.23206431 254.34780619 92.54992999 255.34997666 96 256.5 C97.78195304 256.59584543 99.56728409 256.63331272 101.35180664 256.63803101 C102.46226349 256.64348434 103.57272034 256.64893768 104.71682739 256.65455627 C105.93562592 256.6555986 107.15442444 256.65664093 108.41015625 256.65771484 C110.3796694 256.66551363 112.34918254 256.67331648 114.31869507 256.68127275 C116.43624743 256.68898645 118.55379548 256.69436892 120.6713562 256.69923019 C125.08310933 256.70990977 129.49478579 256.73015314 133.90649414 256.75234985 C146.45162456 256.81427992 158.99674994 256.86832854 171.54199219 256.90136719 C178.47053448 256.91969402 185.39894786 256.94860217 192.32739544 256.9893719 C195.99451112 257.01046856 199.66146422 257.02590295 203.3286438 257.02817917 C207.41589188 257.03071925 211.5026864 257.05614829 215.58984375 257.08349609 C216.80864227 257.08048996 218.0274408 257.07748383 219.28317261 257.0743866 C220.94885788 257.09102608 220.94885788 257.09102608 222.64819336 257.10800171 C223.61494492 257.11131186 224.58169647 257.114622 225.57774353 257.11803246 C228.41191475 257.56495516 229.3047911 258.22637155 231 260.5 C231.3984375 262.4375 231.3984375 262.4375 231.375 264.5 C231.38273438 265.180625 231.39046875 265.86125 231.3984375 266.5625 C230.86609489 269.1511464 230.10291753 269.90248165 228 271.5 C225.33624554 271.87638092 225.33624554 271.87638092 222.06095886 271.87854004 C220.19983711 271.89084404 220.19983711 271.89084404 218.30111694 271.90339661 C216.92364391 271.89743785 215.54617198 271.89121875 214.16870117 271.88476562 C212.71987989 271.88887015 211.2710619 271.89433031 209.82225037 271.90104675 C206.70051567 271.91278255 203.57895782 271.91525224 200.45720482 271.91069031 C195.51949904 271.90388825 190.58202641 271.91973629 185.6443634 271.93908691 C175.15875487 271.97697618 164.67316648 271.98974248 154.1875 272 C142.87807222 272.01107131 131.56875156 272.026442 120.25939733 272.07071257 C115.35280439 272.08906136 110.44647727 272.09296363 105.53985822 272.08577728 C102.48357585 272.08425364 99.42742596 272.09505094 96.37117958 272.10915565 C94.9562645 272.11315291 93.54132413 272.11204248 92.12641907 272.10538292 C90.19095424 272.09697476 88.25543343 272.10875128 86.31999207 272.12145996 C84.69702855 272.12252872 84.69702855 272.12252872 83.04127789 272.12361908 C79.48131561 272.56419108 77.0637896 273.66076036 74 275.5 C72.57958179 278.34083641 72.68547728 280.35477278 73 283.5 C75.23206431 286.34780619 76.54992999 287.34997666 80 288.5 C81.98458477 288.5967624 83.97229174 288.63334897 85.95922852 288.63803101 C87.20431183 288.64348434 88.44939514 288.64893768 89.73220825 288.65455627 C91.11444087 288.65567603 92.49667354 288.65672655 93.87890625 288.65771484 C95.3325923 288.66238332 96.78627689 288.66752693 98.23995972 288.67311096 C101.37146874 288.68438961 104.50296825 288.69282479 107.63449097 288.69923019 C112.58391879 288.70990546 117.53327815 288.73014772 122.48266602 288.75234985 C136.55709713 288.81429431 150.63152383 288.86833088 164.70605469 288.90136719 C172.47839232 288.91969088 180.25061499 288.94859538 188.02286816 288.9893719 C192.13711114 289.01047427 196.25120907 289.02590376 200.36550903 289.02817917 C204.23318531 289.03032079 208.10055921 289.04613982 211.96814346 289.07256889 C213.38914449 289.07978112 214.81018207 289.08185357 216.23119736 289.07846642 C218.16774321 289.07458702 220.1042986 289.09074883 222.04077148 289.10800171 C223.66788307 289.11296693 223.66788307 289.11296693 225.3278656 289.11803246 C228 289.5 228 289.5 229.84754944 290.90340614 C231.28418297 292.89370433 231.40271089 294.0614415 231.375 296.5 C231.38273438 297.180625 231.39046875 297.86125 231.3984375 298.5625 C230.87032652 301.13056906 230.06554116 301.89793313 228 303.5 C225.58612347 303.87638092 225.58612347 303.87638092 222.66838074 303.87854004 C221.56225937 303.88674271 220.456138 303.89494537 219.3164978 303.90339661 C218.10241241 303.89724838 216.88832703 303.89110016 215.63745117 303.88476562 C213.67525943 303.89301302 211.71306769 303.90126118 209.75087607 303.90953827 C207.64065944 303.91554143 205.53056086 303.91415259 203.42033958 303.91069031 C199.0203017 303.90388505 194.6205252 303.91974187 190.22053528 303.93908691 C180.87620431 303.9769687 171.53189597 303.98974047 162.1875 304 C152.10988912 304.01107348 142.03239846 304.02646234 131.95487005 304.07071257 C127.58349224 304.08905024 123.21241274 304.09296765 118.84100568 304.08577728 C116.77401741 304.08462031 114.70718163 304.09026807 112.64021301 304.09895325 C110.12352657 304.10948794 107.60676379 304.10941211 105.09008789 304.09660339 C97.11215976 304.11067582 97.11215976 304.11067582 90 307.5 C88.57958179 310.34083641 88.68547728 312.35477278 89 315.5 C91.23206431 318.34780619 92.54992999 319.34997666 96 320.5 C97.78195304 320.59584543 99.56728409 320.63331272 101.35180664 320.63803101 C103.01749191 320.64621101 103.01749191 320.64621101 104.71682739 320.65455627 C105.93562592 320.6555986 107.15442444 320.65664093 108.41015625 320.65771484 C110.3796694 320.66551363 112.34918254 320.67331648 114.31869507 320.68127275 C116.43624743 320.68898645 118.55379548 320.69436892 120.6713562 320.69923019 C125.08310933 320.70990977 129.49478579 320.73015314 133.90649414 320.75234985 C146.45162456 320.81427992 158.99674994 320.86832854 171.54199219 320.90136719 C178.47053448 320.91969402 185.39894786 320.94860217 192.32739544 320.9893719 C195.99451112 321.01046856 199.66146422 321.02590295 203.3286438 321.02817917 C207.41589188 321.03071925 211.5026864 321.05614829 215.58984375 321.08349609 C216.80864227 321.08048996 218.0274408 321.07748383 219.28317261 321.0743866 C220.94885788 321.09102608 220.94885788 321.09102608 222.64819336 321.10800171 C223.61494492 321.11131186 224.58169647 321.114622 225.57774353 321.11803246 C228.41191475 321.56495516 229.3047911 322.22637155 231 324.5 C231.3984375 326.4375 231.3984375 326.4375 231.375 328.5 C231.38273438 329.180625 231.39046875 329.86125 231.3984375 330.5625 C230.8796845 333.08506359 229.97687794 333.88176909 228 335.5 C225.03404388 335.79444378 222.27626076 335.90648011 219.30932617 335.88476562 C218.42119736 335.8901384 217.53306854 335.89551117 216.61802673 335.90104675 C214.6880988 335.91083558 212.7581268 335.91376557 210.8281765 335.91069031 C207.77222521 335.90621965 204.71685531 335.92019231 201.66096497 335.93908691 C195.16981957 335.97591574 188.6787345 335.98958184 182.1875 336 C174.67592799 336.01207715 167.16463795 336.03364389 159.65319252 336.08000183 C156.64524388 336.09357058 153.63765169 336.08940067 150.62968445 336.08459473 C148.77940417 336.09393757 146.92912783 336.10410695 145.07885742 336.11523438 C144.24487427 336.10908615 143.41089111 336.10293793 142.55163574 336.09660339 C137.64490575 336.14833542 134.24979626 336.77313598 130 339.5 C128.57958179 342.34083641 128.68547728 344.35477278 129 347.5 C131.23206431 350.34780619 132.54992999 351.34997666 136 352.5 C138.82597134 352.70972856 141.63248036 352.86648818 144.46264648 352.97851562 C145.77037805 353.03336577 145.77037805 353.03336577 147.10452843 353.089324 C158.87826459 353.55751598 170.65616284 353.82069373 182.4375 354 C183.58905327 354.01815136 184.74060654 354.03630272 185.92705536 354.05500412 C224.71664901 354.59551992 258.97330513 349.81813071 295.80249023 337.76953125 C297.03256506 337.37198088 297.03256506 337.37198088 298.28748989 336.96639919 C302.06265336 335.74346452 305.81362094 334.49010444 309.53788757 333.11964417 C324.42060537 328.04856122 334.69714467 329.09665018 352 328.5 C352 294.18 352 259.86 352 224.5 C342.1 224.17 332.2 223.84 322 223.5 C307.48384558 219.78176678 307.48384558 219.78176678 301.87817383 218.07641602 C264.44082803 207.13875799 226.96077055 207.21465508 188.3125 207.5625 C187.592977 207.56882242 186.87345401 207.57514483 186.13212729 207.58165884 C167.41879562 207.74936295 148.70891834 208.0558702 130 208.5 Z M63.56486511 356.25254822 C62.48515442 356.41938614 61.40544373 356.58622406 60.29301453 356.75811768 C59.11761612 356.9435614 57.94221771 357.12900513 56.73120117 357.32006836 C54.81709647 357.6171374 52.90299078 357.91420015 50.98884928 358.21103203 C48.93183397 358.53058403 46.87508889 358.85183308 44.81838036 359.1733532 C40.4961846 359.8482495 36.17262067 360.51406815 31.84870911 361.1778717 C31.11530861 361.29050714 30.38190811 361.40314258 29.62628335 361.51919121 C28.12581038 361.74962779 26.6253351 361.98004928 25.12485754 362.21045601 C15.06910094 363.75507645 5.01435719 365.30576019 -5.03686523 366.87963867 C-11.82610211 367.94266449 -18.61739077 368.99142505 -25.41113681 370.0252524 C-28.98856308 370.57019477 -32.56471032 371.12142016 -36.13840675 371.69035149 C-37.16969687 371.85347506 -37.16969687 371.85347506 -38.22182113 372.01989406 C-40.0691016 372.31270613 -41.91595204 372.6082277 -43.76276112 372.90399837 C-61.67557302 375.49212713 -77.47448698 375.92107772 -96 376.5 C-96 399.6 -96 422.7 -96 446.5 C-87.42 444.85 -78.84 443.2 -70 441.5 C-61.82829656 441.5 -55.65794926 441.63943475 -48.02807617 443.53540039 C-47.1109787 443.75158524 -46.19388123 443.96777008 -45.24899292 444.19050598 C-43.28177597 444.65602801 -41.31599116 445.12763794 -39.35158348 445.60487556 C-36.23892483 446.36078075 -33.12264359 447.09969682 -30.00495911 447.83457947 C-23.39555377 449.39567654 -16.79128169 450.97780844 -10.1875 452.5625 C-2.5126829 454.40331559 5.16404407 456.23534409 12.84583092 458.04687309 C15.90994574 458.77398293 18.97015317 459.51614896 22.0304718 460.25904846 C23.9118254 460.70475733 25.79334262 461.14977629 27.67504883 461.59399414 C28.51934952 461.80330566 29.36365021 462.01261719 30.23353577 462.22827148 C39.6158999 464.40592386 47.07007628 461.67295371 55.99047852 458.6862793 C57.18155212 458.29266205 58.37262573 457.8990448 59.59979248 457.49349976 C62.85124222 456.4173401 66.1008007 455.33581368 69.34944654 454.25123954 C72.0673964 453.3445408 74.78653162 452.44142607 77.50565094 451.53824168 C83.92220839 449.40677284 90.33662321 447.26894641 96.74975586 445.12719727 C103.35474299 442.92150636 109.96332732 440.72686246 116.57376724 438.53757352 C122.26105576 436.65356899 127.94598775 434.76257607 133.62910789 432.86603481 C137.01824302 431.73511703 140.40820437 430.60686023 143.80047798 429.4853878 C147.58337878 428.23438963 151.3613191 426.96883358 155.13891602 425.7019043 C156.25648788 425.33447617 157.37405975 424.96704803 158.52549744 424.58848572 C168.07393254 421.44827351 168.07393254 421.44827351 175 414.5 C175.68343706 410.72311096 175.85107095 407.02813111 173.94921875 403.61328125 C172.17977487 401.45758708 170.5083344 399.7541672 168 398.5 C161.59501939 398.13420365 156.01424222 399.17925884 149.80786133 400.68725586 C148.81986038 400.91973526 147.83185944 401.15221466 146.81391907 401.39173889 C143.56790222 402.15770786 140.32503314 402.93621801 137.08203125 403.71484375 C134.81876869 404.25133879 132.55531235 404.78701694 130.29167175 405.32191467 C124.34550047 406.72918217 118.40189408 408.14699551 112.45880127 409.56719971 C106.40949644 411.01104962 100.3580382 412.44581028 94.30664062 413.88085938 C87.50791658 415.49317503 80.70939272 417.10626025 73.91279602 418.7275238 C72.8796225 418.9737146 71.84644897 419.2199054 70.78196716 419.47355652 C68.85656352 419.93246607 66.931325 420.3920692 65.00628662 420.85250854 C53.00605827 423.71092611 45.13630167 424.56789949 33.59375 419.4921875 C31.61345297 418.66235052 29.63297879 417.83293616 27.65234375 417.00390625 C24.5681482 415.69067712 21.48760624 414.36964249 18.41064453 413.03955078 C15.41760357 411.75272925 12.41313418 410.49624867 9.40625 409.2421875 C8.49661499 408.8381369 7.58697998 408.4340863 6.64978027 408.01779175 C0.3262768 405.40098058 -3.54069101 405.45700222 -10 407.5 C-12.9609375 407.80078125 -12.9609375 407.80078125 -15.375 407.8125 C-16.18710938 407.82925781 -16.99921875 407.84601563 -17.8359375 407.86328125 C-20.54641011 407.40827411 -21.41340849 406.72424063 -23 404.5 C-23.3984375 402.5625 -23.3984375 402.5625 -23.375 400.5 C-23.38660156 399.4790625 -23.38660156 399.4790625 -23.3984375 398.4375 C-22.86430249 395.84013759 -22.07815971 395.15418914 -20 393.5 C-17.16748047 392.53955078 -17.16748047 392.53955078 -13.6171875 391.6953125 C-12.95457916 391.53511124 -12.29197083 391.37490997 -11.60928345 391.20985413 C-9.36688381 390.67110159 -7.12104852 390.14831383 -4.875 389.625 C-3.27780898 389.2433712 -1.68080909 388.8609418 -0.08398438 388.4777832 C10.57491465 385.93677575 21.26515778 383.54031806 31.9609375 381.16015625 C34.55326238 380.58009289 37.14554748 379.99985168 39.73779297 379.41943359 C44.87655116 378.26903517 50.01916048 377.13838494 55.16455078 376.01806641 C57.55775637 375.48532539 59.95082898 374.95198654 62.34375 374.41796875 C63.44745941 374.18280045 64.55116882 373.94763214 65.68832397 373.70533752 C73.10634272 372.09572122 73.10634272 372.09572122 79 367.5 C79.83345815 364.04295504 79.83345815 364.04295504 79 360.5 C76.9575649 357.45726583 76.9575649 357.45726583 74 355.5 C70.44206105 355.2320365 67.07926104 355.70284395 63.56486511 356.25254822 Z " fill="#A27BC4" transform="translate(128,15.5)"/>
</svg>
