 <svg  version="1.0" xmlns="http://www.w3.org/2000/svg"  width="300.000000pt" height="300.000000pt" viewBox="0 0 300.000000 300.000000"  preserveAspectRatio="xMidYMid meet">  <g transform="translate(0.000000,300.000000) scale(0.050000,-0.050000)" fill="#30992e" stroke="none"> <path d="M0 2999 l0 -2999 3000 0 3000 0 0 838 c0 652 -6 841 -25 849 -20 8 -20 10 0 11 29 2 35 2441 6 2512 -9 23 -7 51 4 65 22 28 4 93 -22 77 -9 -6 -16 2 -16 17 0 15 9 23 21 19 14 -5 22 22 23 71 1 43 -6 74 -15 69 -9 -6 -16 -1 -16 11 0 11 9 21 20 21 11 0 20 32 20 70 0 41 -10 70 -24 70 -19 0 -19 5 0 24 29 29 32 169 4 186 -11 7 -20 23 -20 36 0 14 8 12 20 -6 12 -20 19 154 19 503 0 413 -6 535 -25 543 -52 20 -304 9 -319 -13 -11 -17 -14 -17 -15 0 0 16 -101 23 -351 24 -269 1 -347 -4 -336 -23 8 -13 -2 -10 -22 6 -46 38 -58 34 -74 -24 l-13 -46 -2 45 -2 46 -2420 -2 -2420 -1 0 -2999z m1563 2788 c25 -23 37 -61 37 -122 l0 -88 65 16 c377 97 633 -101 672 -519 l13 -135 109 165 c319 483 754 744 983 591 130 -88 218 -304 191 -468 -12 -79 10 -86 54 -18 18 26 59 64 93 84 l60 36 0 209 c0 292 -13 282 377 282 396 0 383 10 384 -278 l1 -212 78 -54 c186 -129 279 -335 295 -655 9 -170 17 -215 47 -240 36 -30 278 -552 278 -599 0 -26 -7 -25 247 -22 301 4 273 105 272 -988 0 -1093 26 -992 -261 -992 -144 0 -245 -12 -328 -37 -66 -20 -129 -38 -140 -40 -12 -1 -24 -133 -30 -324 -8 -255 -16 -324 -40 -339 -17 -11 -293 -20 -644 -20 l-614 0 -13 -69 c-35 -183 -64 -199 -965 -499 l-816 -272 -109 27 c-60 15 -176 43 -259 62 -192 44 -336 77 -616 142 -157 37 -249 49 -300 39 -41 -8 -96 -18 -124 -23 -78 -14 -226 -47 -264 -59 -104 -31 -116 31 -116 615 0 651 -12 617 223 617 l157 0 0 893 0 893 -149 -14 c-151 -14 -231 17 -231 88 0 19 153 372 298 686 34 74 62 143 62 152 0 63 89 126 165 116 67 -9 76 -6 64 23 -147 362 -147 763 1 986 104 158 339 228 565 170 l65 -16 0 85 c0 135 83 198 163 125z m4363 -464 c4 -47 -1 -90 -10 -96 -9 -5 -16 -3 -14 7 7 42 -5 66 -34 66 -20 0 -28 -11 -21 -30 7 -16 3 -30 -8 -30 -10 0 -19 21 -19 47 0 40 8 46 52 37 47 -9 50 -6 31 31 -12 22 -16 45 -9 52 20 20 25 6 32 -84z m-403 -161 c-17 -11 -20 -22 -7 -30 24 -14 18 -84 -7 -77 -9 3 -16 28 -15 55 3 70 3 70 31 70 18 -1 18 -5 -2 -18z m442 -36 c-14 -5 -19 -19 -12 -31 8 -12 4 -15 -10 -7 -15 9 -23 -2 -23 -32 -1 -36 -5 -40 -19 -17 -12 18 -12 38 0 52 10 13 12 30 4 39 -8 9 -4 10 9 3 13 -8 29 -4 37 8 7 12 19 15 26 8 7 -8 2 -19 -12 -23z m-17 -116 c29 30 32 30 32 1 0 -17 -13 -31 -30 -31 -47 0 -57 -3 -97 -23 -31 -18 -33 -15 -15 19 11 21 14 47 6 56 -8 10 5 1 29 -18 39 -33 45 -33 75 -4z m-21 -140 c-6 -17 3 -35 21 -42 18 -7 32 -20 32 -30 0 -9 -15 -11 -33 -4 -27 10 -31 3 -20 -41 8 -29 6 -53 -4 -53 -26 0 -39 107 -20 158 9 23 20 42 26 42 5 0 5 -13 -2 -30z"/> <path d="M4040 5525 l0 -95 180 0 180 0 0 95 0 95 -180 0 -180 0 0 -95z"/> <path d="M3220 5541 c-100 -30 -187 -87 -310 -201 l-126 -117 146 -93 c185 -117 216 -179 120 -242 -50 -32 -54 -31 -195 64 -80 54 -155 105 -169 113 -16 11 -51 -25 -105 -103 l-80 -119 104 -59 c194 -110 250 -186 184 -253 -50 -49 -98 -37 -236 59 -71 50 -134 90 -141 90 -9 0 -49 -70 -147 -260 -3 -5 227 -8 510 -5 l514 5 37 125 c144 495 151 995 15 995 -10 0 -30 4 -44 8 -15 5 -50 2 -77 -7z"/> <path d="M972 5359 c-139 -122 -163 -440 -59 -765 l57 -176 530 0 530 0 57 176 c183 563 -8 924 -427 808 -80 -22 -85 -142 -6 -142 121 0 185 -98 109 -167 -56 -51 -463 -48 -510 4 -60 66 -2 163 98 163 74 0 65 121 -11 142 -139 39 -296 20 -368 -43z"/> <path d="M4160 5246 c-321 -45 -500 -271 -500 -634 l0 -202 562 0 562 0 -8 210 c-15 410 -274 673 -616 626z"/> <path d="M668 4105 c-78 -177 -126 -284 -186 -415 l-56 -120 2380 -5 c1309 -3 2384 -2 2387 2 4 3 -23 69 -59 145 -37 76 -102 221 -145 323 l-79 184 -2096 1 -2096 0 -50 -115z"/> <path d="M5420 3519 c28 -50 9 -113 -36 -125 -19 -5 27 -10 101 -12 l135 -2 0 90 0 90 -111 0 c-105 0 -109 -2 -89 -41z"/> <path d="M760 2484 c0 -488 7 -882 15 -877 8 5 51 15 95 22 44 6 134 21 200 31 66 11 152 23 190 28 65 9 285 43 400 62 691 117 835 110 928 -49 121 -206 -9 -388 -322 -450 -136 -27 -136 -27 218 -29 259 -1 390 7 490 30 75 17 154 36 176 41 268 63 385 57 478 -23 l58 -50 595 0 595 0 1 216 0 216 -263 -76 -264 -76 -668 0 c-649 0 -669 1 -737 43 -86 53 -154 192 -135 276 l12 57 -136 -2 c-222 -3 -365 127 -340 309 9 68 4 82 -33 96 -195 76 -198 427 -5 500 31 12 39 35 40 123 4 211 142 309 419 295 l149 -8 -35 51 c-20 27 -41 68 -48 90 -12 39 -30 40 -1043 40 l-1030 0 0 -886z"/> <path d="M3020 3367 c0 -135 131 -172 603 -168 432 3 484 -5 507 -80 37 -116 15 -119 -803 -119 l-746 0 -33 -51 c-82 -125 -57 -129 820 -130 844 0 852 -1 852 -106 0 -91 -25 -93 -959 -93 l-882 0 -21 -47 c-62 -135 -78 -133 919 -133 943 0 943 0 943 -91 0 -109 -9 -110 -842 -109 -422 0 -779 1 -792 0 -49 0 -71 -79 -37 -131 l32 -49 795 0 c842 0 844 0 844 -94 0 -101 -51 -110 -635 -104 -563 6 -585 3 -585 -71 0 -91 19 -93 693 -92 l637 1 517 140 c388 105 548 140 645 140 l128 0 0 600 0 600 -146 0 c-80 0 -195 12 -255 27 -607 152 -627 154 -1444 167 -454 7 -755 4 -755 -7z"/> <path d="M2270 1649 c-18 -8 -456 -75 -1100 -170 -143 -21 -318 -47 -390 -58 -71 -11 -191 -20 -265 -21 l-135 0 0 -412 c0 -384 2 -411 35 -399 232 89 316 83 995 -79 66 -16 218 -52 339 -80 l218 -51 761 255 c424 142 777 271 797 291 53 53 39 151 -28 201 l-53 39 -227 -54 c-447 -107 -567 -135 -597 -141 -16 -4 -129 -30 -250 -59 -121 -28 -242 -57 -268 -63 -31 -6 -149 30 -336 105 -280 111 -291 114 -378 91 -114 -31 -168 -6 -168 74 0 77 21 89 240 141 105 24 244 56 310 72 66 15 224 51 350 79 306 69 298 66 312 122 22 85 -73 153 -162 117z"/> <path d="M1903 1195 c-14 -14 -34 -26 -44 -27 -10 -2 -29 -4 -40 -5 -12 -2 -8 -16 9 -34 17 -17 33 -29 36 -26 3 2 27 -7 52 -21 79 -42 241 -60 266 -29 13 15 29 22 38 17 9 -5 28 6 43 24 15 19 17 27 4 20 -13 -8 -37 -1 -54 16 -17 16 -42 30 -57 30 -15 0 -47 14 -71 31 -36 25 -51 26 -85 5 -33 -21 -44 -21 -57 -1 -12 20 -20 20 -40 0z"/> </g> </svg> 